<svg width="16" height="14" viewBox="0 0 16 14" fill="none" xmlns="http://www.w3.org/2000/svg">
<path d="M2.25728 2.77791C1.75306 2.21437 1.50094 1.93259 1.49143 1.69312C1.48317 1.48509 1.57257 1.28515 1.73311 1.15259C1.91791 1 2.29601 1 3.05221 1H12.9475C13.7037 1 14.0818 1 14.2666 1.15259C14.4271 1.28515 14.5165 1.48509 14.5083 1.69312C14.4988 1.93259 14.2466 2.21437 13.7424 2.77791L9.93826 7.02962C9.83775 7.14196 9.78749 7.19813 9.75166 7.26205C9.71987 7.31875 9.69655 7.37978 9.68244 7.44323C9.66652 7.51476 9.66652 7.59013 9.66652 7.74087V11.3056C9.66652 11.436 9.66652 11.5011 9.64549 11.5575C9.62691 11.6073 9.59669 11.6519 9.55735 11.6877C9.51283 11.7281 9.45231 11.7524 9.33126 11.8008L7.06459 12.7074C6.81956 12.8054 6.69705 12.8545 6.5987 12.834C6.51269 12.8161 6.43722 12.765 6.38869 12.6918C6.33318 12.6081 6.33318 12.4762 6.33318 12.2122V7.74087C6.33318 7.59013 6.33318 7.51476 6.31726 7.44323C6.30315 7.37978 6.27983 7.31875 6.24804 7.26205C6.21221 7.19813 6.16195 7.14196 6.06144 7.02962L2.25728 2.77791Z" stroke="#1F2A37" stroke-width="1.6" stroke-linecap="round" stroke-linejoin="round"/>
</svg>
